{"title":"John Carter 2012 TS FULL LiNE READNFO XviD -ILLUMINATI","uid":7111406,"size":1867586597,"categoryP":"video","categoryS":"movies","magnet":"?xt=urn:btih:33db5a3a4e0169d238504969b5ddb6ff98210366&amp;dn=John+Carter+2012+TS+FULL+LiNE+READNFO+XviD+-ILLUMINATI&amp;tr=udp%3A%2F%2Ftracker.openbittorrent.com%3A80&amp;tr=udp%3A%2F%2Fopen.demonii.com%3A1337&amp;tr=udp%3A%2F%2Ftracker.coppersurfer.tk%3A6969&amp;tr=udp%3A%2F%2Fexodus.desync.com%3A6969","seeders":0,"leechers":1,"uploader":"LegendET","files":3,"time":1332082399,"description":"[center]\n &lt;a href=&quot;\nhttp://www.filmofilia.com/wp-content/uploads/2011/11/john_carter_image.jpg&quot; rel=&quot;nofollow&quot; target=&quot;_NEW&quot;&gt;\nhttp://www.filmofilia.com/wp-content/uploads/2011/11/john_carter_image.jpg&lt;/a&gt;\nJohn Carter 2012 TS FULL LiNE READNFO XviD - ILLUMINATI\n &lt;a href=&quot;\nhttp://www.imdb.com/title/tt0401729/&quot; rel=&quot;nofollow&quot; target=&quot;_NEW&quot;&gt;\nhttp://www.imdb.com/title/tt0401729/&lt;/a&gt;\n\nVideo\nID                               : 0\nFormat                           : MPEG-4 Visual\nFormat profile                   : Advanced Simple@L5\nFormat settings, BVOP            : 2\nFormat settings, QPel            : No\nFormat settings, GMC             : No warppoints\nFormat settings, Matrix          : Default (H.263)\nMuxing mode                      : Packed bitstream\nCodec ID                         : XVID\nCodec ID/Hint                    : XviD\nDuration                         : 2h 2mn\nBit rate                         : 1 896 Kbps\nWidth                            : 720 pixels\nHeight                           : 288 pixels\nDisplay aspect ratio             : 2.500\nFrame rate                       : 25.000 fps\nColor space                      : YUV\nChroma subsampling               : 4:2:0\nBit depth                        : 8 bits\nScan type                        : Progressive\nCompression mode                 : Lossy\nBits/(Pixel*Frame)               : 0.366\nStream size                      : 1.62 GiB (93%)\nWriting library                  : XviD 64\n\nAudio\nID                               : 1\nFormat                           : MPEG Audio\nFormat version                   : Version 1\nFormat profile                   : Layer 3\nMode                             : Joint stereo\nMode extension                   : MS Stereo\nCodec ID                         : 55\nCodec ID/Hint                    : MP3\nDuration                         : 2h 2mn\nBit rate mode                    : Constant\nBit rate                         : 128 Kbps\nChannel(s)                       : 2 channels\nSampling rate                    : 44.1 KHz\nCompression mode                 : Lossy\nStream size                      : 112 MiB (6%)\nAlignment                        : Split accross interleaves\nInterleave, duration             : 40 ms (1.00 video frame)\n\nSources - \n     V: 26k \n     A: Thanks \n\n\nNotes -\nThanks to 26k for the 720p source files.\ncropped rotated and perspective filtered\naudio is full LiNE    \nhardcoded english subs for alien speak\n &lt;a href=&quot;\nhttp://www.shotpix.com/images/76088917427338748768.png&quot; rel=&quot;nofollow&quot; target=&quot;_NEW&quot;&gt;\nhttp://www.shotpix.com/images/76088917427338748768.png&lt;/a&gt; &lt;a href=&quot;\nhttp://www.shotpix.com/images/41176222050651628744.png&quot; rel=&quot;nofollow&quot; target=&quot;_NEW&quot;&gt;\nhttp://www.shotpix.com/images/41176222050651628744.png&lt;/a&gt; &lt;a href=&quot;\nhttp://www.shotpix.com/images/32347545853036771091.png&quot; rel=&quot;nofollow&quot; target=&quot;_NEW&quot;&gt;\nhttp://www.shotpix.com/images/32347545853036771091.png&lt;/a&gt; &lt;a href=&quot;\nhttp://www.shotpix.com/images/50918152986318197335.png&quot; rel=&quot;nofollow&quot; target=&quot;_NEW&quot;&gt;\nhttp://www.shotpix.com/images/50918152986318197335.png&lt;/a&gt; &lt;a href=&quot;\nhttp://www.shotpix.com/images/21771455536267722706.png&quot; rel=&quot;nofollow&quot; target=&quot;_NEW&quot;&gt;\nhttp://www.shotpix.com/images/21771455536267722706.png&lt;/a&gt; &lt;a href=&quot;\nhttp://www.shotpix.com/images/26985924465519807787.png&quot; rel=&quot;nofollow&quot; target=&quot;_NEW&quot;&gt;\nhttp://www.shotpix.com/images/26985924465519807787.png&lt;/a&gt; &lt;a href=&quot;\nhttp://www.shotpix.com/images/93729756613904290861.png&quot; rel=&quot;nofollow&quot; target=&quot;_NEW&quot;&gt;\nhttp://www.shotpix.com/images/93729756613904290861.png&lt;/a&gt;","torrent":{"xt":"urn:btih:33db5a3a4e0169d238504969b5ddb6ff98210366","amp;dn":"John+Carter+2012+TS+FULL+LiNE+READNFO+XviD+-ILLUMINATI","amp;tr":["udp%3A%2F%2Ftracker.openbittorrent.com%3A80","udp%3A%2F%2Fopen.demonii.com%3A1337","udp%3A%2F%2Ftracker.coppersurfer.tk%3A6969","udp%3A%2F%2Fexodus.desync.com%3A6969"],"infoHash":"33db5a3a4e0169d238504969b5ddb6ff98210366","infoHashBuffer":{"type":"Buffer","data":[51,219,90,58,78,1,105,210,56,80,73,105,181,221,182,255,152,33,3,102]},"announce":[],"urlList":[]}}